<?xml version="1.0" encoding="utf-8"?>
<!-- Generator: Adobe Illustrator 21.1.0, SVG Export Plug-In . SVG Version: 6.00 Build 0)  -->
<!DOCTYPE svg PUBLIC "-//W3C//DTD SVG 1.1//EN" "http://www.w3.org/Graphics/SVG/1.1/DTD/svg11.dtd" [
	<!ENTITY ns_extend "http://ns.adobe.com/Extensibility/1.0/">
	<!ENTITY ns_ai "http://ns.adobe.com/AdobeIllustrator/10.0/">
	<!ENTITY ns_graphs "http://ns.adobe.com/Graphs/1.0/">
	<!ENTITY ns_vars "http://ns.adobe.com/Variables/1.0/">
	<!ENTITY ns_imrep "http://ns.adobe.com/ImageReplacement/1.0/">
	<!ENTITY ns_sfw "http://ns.adobe.com/SaveForWeb/1.0/">
	<!ENTITY ns_custom "http://ns.adobe.com/GenericCustomNamespace/1.0/">
	<!ENTITY ns_adobe_xpath "http://ns.adobe.com/XPath/1.0/">
]>
<svg version="1.1" id="Home" xmlns:x="&ns_extend;" xmlns:i="&ns_ai;" xmlns:graph="&ns_graphs;"
	 xmlns="http://www.w3.org/2000/svg" xmlns:xlink="http://www.w3.org/1999/xlink" x="0px" y="0px" viewBox="0 0 195 216.8"
	 style="enable-background:new 0 0 195 216.8;" xml:space="preserve">
<style type="text/css">
	.st0{fill:#0DF9FF;}
	.st1{fill:url(#Active_2_1_);}
	.st2{fill:#FFFFFF;}
	.st3{font-family:'Roboto-Regular';}
	.st4{font-size:11px;}
	.st5{letter-spacing:2;}
	.st6{fill:url(#SVGID_1_);}
	.st7{fill:url(#SVGID_2_);}
	.st8{fill:url(#SVGID_3_);}
	.st9{fill:url(#SVGID_4_);}
	.st10{fill:url(#SVGID_5_);}
</style>
<switch>
	<g i:extraneous="self">
		<rect id="Active_1" y="214.3" transform="matrix(-1 -1.224647e-16 1.224647e-16 -1 195.8833 431.0468)" class="st0" width="195.9" height="2.4"/>
		<linearGradient id="Active_2_1_" gradientUnits="userSpaceOnUse" x1="97.9416" y1="236.9585" x2="97.9416" y2="-68.5304">
			<stop  offset="0" style="stop-color:#0DF9FF"/>
			<stop  offset="9.208472e-02" style="stop-color:#0DF9FF;stop-opacity:0.853"/>
			<stop  offset="0.6264" style="stop-color:#0DF9FF;stop-opacity:0"/>
		</linearGradient>
		<rect id="Active_2" class="st1" width="195.9" height="214.3"/>
		<g>
			<g id="Home_1_">
				<g>
					<linearGradient id="SVGID_1_" gradientUnits="userSpaceOnUse" x1="99.287" y1="155.911" x2="99.287" y2="84.32">
						<stop  offset="0" style="stop-color:#00ADDC"/>
						<stop  offset="1" style="stop-color:#6BFBFF"/>
					</linearGradient>
					<path class="st6" d="M67.3,106.3c-1.2-1.2-1.2-3.2,0-4.4l29.8-28.7c1.1-1.1,3.2-1.2,4.3,0l29.8,28.7c1.2,1.2,1.2,3.2,0,4.4
						l-1.4-1.4c0.4-0.4,0.4-1.1,0-1.5L100,74.6c-0.4-0.4-1.1-0.4-1.5,0l-29.8,28.7c-0.4,0.4-0.4,1.1,0,1.5L67.3,106.3z"/>
				</g>
				<g>
					<linearGradient id="SVGID_2_" gradientUnits="userSpaceOnUse" x1="118.5558" y1="155.911" x2="118.5558" y2="84.32">
						<stop  offset="0" style="stop-color:#00ADDC"/>
						<stop  offset="1" style="stop-color:#6BFBFF"/>
					</linearGradient>
					<path class="st7" d="M124.8,90h-2V76.9l-8.4,0l0,4.2h-2v-4.2c0-1.1,0.9-2.1,2.1-2.1h8.4c1.1,0,2.1,0.9,2.1,2.1V90z"/>
				</g>
				<g>
					<linearGradient id="SVGID_3_" gradientUnits="userSpaceOnUse" x1="80.0296" y1="155.911" x2="80.0296" y2="84.32">
						<stop  offset="0" style="stop-color:#00ADDC"/>
						<stop  offset="1" style="stop-color:#6BFBFF"/>
					</linearGradient>
					<path class="st8" d="M88.4,138H74.8c-1.7,0-3.1-1.4-3.1-3.1v-14.7h2v14.7c0,0.6,0.5,1.1,1.1,1.1h13.5V138z"/>
				</g>
				<g>
					<linearGradient id="SVGID_4_" gradientUnits="userSpaceOnUse" x1="118.4708" y1="155.911" x2="118.4708" y2="84.32">
						<stop  offset="0" style="stop-color:#00ADDC"/>
						<stop  offset="1" style="stop-color:#6BFBFF"/>
					</linearGradient>
					<path class="st9" d="M123.7,138h-13.6v-2h13.6c0.6,0,1.1-0.5,1.1-1.1v-27.2c0-0.6-0.5-1.1-1.1-1.1v-2c1.7,0,3.1,1.4,3.1,3.1
						v27.2C126.8,136.7,125.4,138,123.7,138z"/>
				</g>
				<g>
					<linearGradient id="SVGID_5_" gradientUnits="userSpaceOnUse" x1="98.7235" y1="155.911" x2="98.7235" y2="84.32">
						<stop  offset="0" style="stop-color:#00ADDC"/>
						<stop  offset="1" style="stop-color:#6BFBFF"/>
					</linearGradient>
					<path class="st10" d="M105,138.2l0-21l-12.5,0l0,18.9l0,2.1c-1.1,0-2.1-0.9-2.1-2.1v-18.9c0-1.1,0.9-2.1,2.1-2.1H105
						c1.1,0,2.1,0.9,2.1,2.1v18.9C107,137.2,106.1,138.2,105,138.2z"/>
				</g>
			</g>
		</g>
	</g>
</switch>
</svg>
