<?xml version="1.0" encoding="utf-8"?>
<!-- Generator: Adobe Illustrator 21.1.0, SVG Export Plug-In . SVG Version: 6.00 Build 0)  -->
<!DOCTYPE svg PUBLIC "-//W3C//DTD SVG 1.1//EN" "http://www.w3.org/Graphics/SVG/1.1/DTD/svg11.dtd" [
	<!ENTITY ns_extend "http://ns.adobe.com/Extensibility/1.0/">
	<!ENTITY ns_ai "http://ns.adobe.com/AdobeIllustrator/10.0/">
	<!ENTITY ns_graphs "http://ns.adobe.com/Graphs/1.0/">
	<!ENTITY ns_vars "http://ns.adobe.com/Variables/1.0/">
	<!ENTITY ns_imrep "http://ns.adobe.com/ImageReplacement/1.0/">
	<!ENTITY ns_sfw "http://ns.adobe.com/SaveForWeb/1.0/">
	<!ENTITY ns_custom "http://ns.adobe.com/GenericCustomNamespace/1.0/">
	<!ENTITY ns_adobe_xpath "http://ns.adobe.com/XPath/1.0/">
]>
<svg version="1.1" id="Multimedia" xmlns:x="&ns_extend;" xmlns:i="&ns_ai;" xmlns:graph="&ns_graphs;"
	 xmlns="http://www.w3.org/2000/svg" xmlns:xlink="http://www.w3.org/1999/xlink" x="0px" y="0px" viewBox="0 0 195 216.8"
	 style="enable-background:new 0 0 195 216.8;" xml:space="preserve">
<style type="text/css">
	.st0{fill:#FFFFFF;}
	.st1{font-family:'Roboto-Regular';}
	.st2{font-size:11px;}
	.st3{letter-spacing:2;}
	.st4{fill:url(#SVGID_1_);}
	.st5{fill:url(#SVGID_2_);}
</style>
<switch>
	<g i:extraneous="self">
		<g>
			<g id="Multimedia_2_">
				<g>
					<linearGradient id="SVGID_1_" gradientUnits="userSpaceOnUse" x1="86.8321" y1="146.5267" x2="114.4627" y2="66.8384">
						<stop  offset="0" style="stop-color:#00ADDC"/>
						<stop  offset="1" style="stop-color:#6BFBFF"/>
					</linearGradient>
					<path class="st4" d="M71.3,139.8c-3.8,0-7.2-1.5-8.9-4.5c-1.7-2.9-3.2-8.7,5.7-13.8c2.9-1.7,10.2-2.3,12.4-2.4l0,2.1
						c-2.7,0.1-9.2,0.8-11.4,2.1c-5.6,3.2-7.2,6.9-4.9,10.9c2.3,4,8.7,4.6,14.3,1.3c4-2.3,6.3-6.3,6.4-10.7l-0.1-0.4V82.7l42.9-8.4
						l0.1,42.6c0,4-2,9.8-7.5,13c-6.6,3.8-14.4,2.9-17.2-2.1c-1.7-2.9-3.2-8.7,5.7-13.8c2.6-1.5,8.6-2.3,11.2-2.4l0.1,2.1
						c-2.5,0.1-8,0.8-10.2,2.1c-3.8,2.2-7.8,5.9-4.9,10.9c2.3,4,8.7,4.6,14.3,1.3c4.7-2.7,6.4-7.6,6.4-11.1l-0.1-0.5V76.9l-38.6,7.6
						v39.9l0.1,0.4c0,5.2-2.8,9.9-7.4,12.6C76.9,139,74,139.8,71.3,139.8z"/>
				</g>
				<g>
					<linearGradient id="SVGID_2_" gradientUnits="userSpaceOnUse" x1="89.6871" y1="147.5167" x2="117.3178" y2="67.8283">
						<stop  offset="0" style="stop-color:#00ADDC"/>
						<stop  offset="1" style="stop-color:#6BFBFF"/>
					</linearGradient>
					<polygon class="st5" points="95.8,99.4 95.3,97.3 119.6,91.6 120.1,93.7 					"/>
				</g>
			</g>
		</g>
	</g>
</switch>
</svg>
